<?xml version="1.0" standalone="no"?>
<!DOCTYPE svg PUBLIC "-//W3C//DTD SVG 20010904//EN"
 "http://www.w3.org/TR/2001/REC-SVG-20010904/DTD/svg10.dtd">
<svg version="1.0" xmlns="http://www.w3.org/2000/svg"
 width="2164.000000pt" height="1004.000000pt" viewBox="0 0 2164.000000 1004.000000"
 preserveAspectRatio="xMidYMid meet">

<g transform="translate(0.000000,1004.000000) scale(0.100000,-0.100000)"
fill="#000000" stroke="none">
<path d="M19460 7604 c-98 -26 -173 -55 -275 -105 -123 -62 -156 -84 -490
-334 -244 -182 -443 -327 -610 -443 -34 -23 -72 -42 -85 -42 -20 0 -268 68
-645 176 -27 7 -178 50 -335 94 -157 44 -301 84 -320 90 -84 24 -468 131 -610
170 -85 23 -165 46 -178 51 -13 5 -49 9 -81 9 -51 0 -65 -5 -117 -39 -77 -52
-94 -66 -94 -79 0 -6 55 -43 123 -83 67 -39 237 -139 377 -222 140 -82 287
-169 325 -192 39 -23 124 -74 190 -113 66 -39 152 -97 191 -129 216 -176 424
-355 433 -372 6 -11 8 -27 5 -36 -4 -8 -77 -73 -163 -143 -209 -170 -362 -306
-501 -446 -86 -87 -121 -116 -140 -116 -14 0 -117 32 -230 71 -326 112 -381
129 -404 123 -32 -8 -170 -107 -173 -124 -1 -8 19 -31 45 -51 108 -82 462
-361 466 -368 3 -4 -30 -66 -73 -139 -46 -76 -74 -133 -67 -135 6 -2 42 6 79
19 37 13 74 21 82 18 7 -3 33 6 58 20 24 14 51 26 61 26 17 0 27 -19 288 -568
l20 -42 67 59 c96 86 103 95 103 138 0 21 -15 166 -32 321 -18 156 -29 293
-26 306 4 17 37 43 114 89 172 103 409 274 667 481 39 31 80 56 92 56 29 0 40
-18 200 -330 96 -187 142 -289 173 -385 23 -71 59 -182 80 -245 21 -63 65
-198 98 -300 32 -102 89 -278 126 -392 37 -115 72 -208 77 -208 6 0 41 30 79
68 99 97 97 80 71 542 -12 212 -28 513 -36 670 -25 474 -35 667 -45 845 -5 94
-10 205 -10 247 l0 77 313 278 c171 153 354 314 406 358 218 184 275 241 370
365 79 104 129 187 157 265 45 125 26 165 -78 164 -35 0 -88 -7 -118 -15z"/>
<path d="M17494 7267 c-20 -12 -112 -82 -286 -220 -49 -38 -88 -72 -88 -77 0
-4 42 -19 93 -34 50 -14 153 -44 227 -66 74 -22 147 -40 161 -40 26 0 153 92
171 123 10 19 -14 95 -49 151 -48 77 -156 176 -192 176 -9 -1 -25 -6 -37 -13z"/>
<path d="M2630 6799 c-212 -42 -355 -96 -500 -191 -240 -156 -420 -406 -496
-688 -60 -220 -58 -503 5 -720 125 -437 441 -738 891 -851 85 -21 118 -24 305
-24 141 0 230 4 270 14 178 40 358 115 494 206 89 60 181 143 181 163 0 18
-199 293 -216 299 -6 2 -41 -22 -80 -52 -90 -73 -180 -126 -279 -165 -146 -58
-177 -64 -350 -64 -140 -1 -169 2 -235 23 -285 89 -485 311 -557 619 -26 113
-24 338 5 447 63 232 207 413 407 510 141 68 194 80 380 79 144 -1 169 -3 250
-28 111 -33 270 -111 350 -171 32 -25 63 -41 67 -37 4 4 50 74 103 156 59 92
94 155 90 165 -6 19 -104 94 -190 145 -69 41 -233 108 -320 131 -157 41 -450
59 -575 34z"/>
<path d="M18525 5838 l-78 -62 7 -90 c4 -50 11 -163 17 -250 5 -88 12 -163 15
-168 7 -11 29 6 194 142 175 145 200 169 200 196 0 30 -57 133 -100 181 -50
56 -128 113 -154 113 -14 0 -57 -27 -101 -62z"/>
<path d="M4510 5726 c-76 -20 -113 -35 -216 -90 -52 -27 -159 -132 -208 -203
-116 -171 -149 -413 -84 -628 47 -158 188 -322 344 -400 136 -68 190 -80 374
-79 153 0 171 2 250 28 119 39 213 97 296 181 329 332 245 907 -164 1123 -173
91 -404 118 -592 68z m340 -283 c146 -51 242 -170 271 -336 24 -131 -21 -284
-113 -383 -80 -87 -234 -137 -354 -115 -240 45 -382 266 -334 520 46 245 300
395 530 314z"/>
<path d="M7335 5746 c-5 -2 -44 -12 -85 -21 -42 -10 -113 -37 -164 -63 -240
-126 -375 -349 -376 -624 0 -158 32 -273 110 -392 89 -136 221 -236 386 -292
72 -25 93 -27 239 -28 188 -1 241 10 383 80 76 37 110 61 177 128 69 68 90 97
128 176 101 209 101 446 1 646 -89 179 -242 303 -450 365 -50 15 -105 22 -204
25 -74 2 -139 2 -145 0z m256 -302 c141 -49 245 -182 271 -348 15 -97 2 -171
-48 -273 -115 -238 -435 -293 -632 -109 -213 199 -158 584 100 710 92 45 216
53 309 20z"/>
<path d="M8805 5735 c-114 -25 -274 -90 -324 -132 l-24 -20 49 -96 c77 -152
64 -145 165 -92 106 55 181 75 279 75 144 0 223 -52 249 -163 23 -93 25 -91
-124 -98 -133 -6 -159 -9 -278 -35 -214 -46 -367 -160 -412 -309 -30 -100 -16
-235 33 -332 32 -62 130 -146 208 -179 64 -26 79 -28 199 -29 126 0 132 1 198
32 46 22 90 54 134 98 36 36 67 65 69 65 2 0 4 -36 4 -80 0 -44 1 -80 3 -81 1
0 71 -3 155 -6 l152 -5 0 484 c0 441 -2 491 -19 556 -62 236 -254 363 -546
361 -60 -1 -137 -7 -170 -14z m403 -802 c8 -111 -75 -258 -183 -323 -33 -20
-53 -24 -120 -25 -69 0 -85 3 -117 25 -82 55 -105 170 -49 247 56 78 199 123
376 120 l90 -2 3 -42z"/>
<path d="M10535 5728 c-89 -29 -191 -102 -252 -182 l-53 -68 0 116 0 116 -160
0 -160 0 0 -675 0 -675 143 -1 c132 -1 179 0 184 5 1 1 4 164 7 361 4 382 7
407 56 510 41 85 90 139 162 174 51 26 73 31 132 31 78 0 121 -19 152 -65 39
-59 44 -123 44 -577 l0 -438 143 -1 c135 -1 179 0 185 5 1 2 4 164 5 362 3
296 7 369 20 417 38 131 104 220 199 268 73 37 183 41 235 9 87 -52 93 -93 93
-622 l0 -438 53 -1 c108 -1 272 2 275 6 2 2 3 225 2 496 -1 409 -3 505 -16
564 -49 215 -191 325 -422 325 -93 0 -168 -18 -253 -61 -62 -31 -153 -109
-190 -163 -13 -20 -29 -36 -34 -36 -6 0 -21 23 -34 51 -44 96 -129 167 -235
195 -75 20 -209 16 -281 -8z"/>
<path d="M12825 5743 c-202 -45 -322 -115 -421 -246 -106 -141 -152 -308 -141
-510 18 -301 195 -540 468 -632 69 -23 107 -29 210 -33 146 -5 224 6 345 49
92 34 234 120 234 143 0 12 -73 159 -106 213 l-14 22 -76 -46 c-178 -108 -349
-128 -499 -59 -110 50 -205 181 -209 286 l-1 45 464 3 463 2 -4 148 c-4 126
-9 158 -33 229 -50 150 -148 269 -273 332 -74 38 -188 61 -292 60 -52 -1 -104
-3 -115 -6z m225 -274 c81 -36 124 -93 149 -192 6 -26 9 -52 6 -58 -9 -13
-572 -12 -580 1 -9 15 21 99 53 145 30 44 107 100 156 114 59 17 167 12 216
-10z"/>
<path d="M6395 5718 c-113 -37 -236 -145 -292 -257 l-33 -65 0 157 0 157 -160
0 -160 0 0 -675 0 -675 53 -1 c96 -1 271 2 274 5 2 1 4 148 6 327 4 263 7 335
21 384 40 146 109 234 224 288 55 25 83 32 154 35 l88 4 0 148 c0 82 -3 155
-6 164 -5 13 -21 16 -73 15 -36 0 -79 -5 -96 -11z"/>
<path d="M14475 5718 c-50 -16 -78 -30 -128 -66 -63 -43 -103 -88 -154 -176
l-43 -71 0 153 0 152 -160 0 -160 0 0 -675 0 -675 143 -1 c136 -1 179 0 185 5
1 2 4 147 5 322 3 213 8 337 16 374 33 142 115 250 231 304 52 24 81 31 152
34 l88 4 0 148 c0 82 -3 155 -6 164 -5 13 -21 16 -73 15 -36 0 -79 -5 -96 -11z"/>
<path d="M15805 4603 c-71 -42 -133 -81 -137 -86 -7 -11 15 -59 50 -109 l18
-27 130 86 c71 47 133 89 137 93 6 6 -58 121 -67 120 -1 0 -59 -35 -131 -77z"/>
<path d="M15331 4350 c-68 -33 -127 -60 -131 -60 -4 0 -13 -7 -20 -15 -10 -12
-6 -27 20 -82 18 -38 37 -71 43 -74 12 -8 268 123 281 144 6 9 -3 35 -28 80
-21 37 -38 67 -39 67 -1 0 -58 -27 -126 -60z"/>
<path d="M14940 4173 c-45 -14 -271 -107 -275 -113 -5 -9 51 -159 64 -173 8
-8 267 98 290 119 12 11 9 24 -20 89 -36 83 -37 84 -59 78z"/>
<path d="M14405 3980 c-11 -5 -73 -26 -138 -46 -64 -20 -120 -40 -123 -45 -6
-10 43 -178 56 -193 9 -9 277 80 298 99 11 10 9 26 -14 91 -37 107 -40 111
-79 94z"/>
<path d="M6088 3883 c7 -3 16 -2 19 1 4 3 -2 6 -13 5 -11 0 -14 -3 -6 -6z"/>
<path d="M6185 3836 c43 -21 74 -30 80 -24 12 11 -8 26 -45 34 -14 3 -33 9
-42 15 -10 5 -28 9 -40 8 -15 0 1 -12 47 -33z"/>
<path d="M13758 3791 c-75 -20 -140 -39 -144 -43 -9 -10 38 -207 51 -212 9 -3
256 62 297 79 20 8 20 5 -16 130 -14 48 -29 81 -37 81 -8 1 -76 -15 -151 -35z"/>
<path d="M6486 3743 c-4 -9 -3 -20 2 -25 11 -11 269 -98 292 -98 18 0 35 48
22 61 -6 6 -288 79 -304 79 -3 0 -9 -8 -12 -17z"/>
<path d="M13320 3690 c-19 -5 -60 -13 -90 -19 -123 -24 -154 -31 -158 -36 -3
-2 5 -51 17 -108 11 -57 21 -106 21 -110 0 -4 11 -7 24 -7 24 0 284 57 297 66
7 4 -25 165 -41 202 -10 23 -15 24 -70 12z"/>
<path d="M7023 3596 c-6 -19 -8 -38 -4 -43 9 -15 301 -87 311 -77 13 14 22 91
12 98 -5 3 -47 13 -93 21 -46 9 -103 20 -126 26 -74 16 -88 13 -100 -25z"/>
<path d="M12646 3567 l-118 -21 7 -61 c21 -182 18 -170 45 -173 25 -3 297 42
306 50 2 3 -5 55 -17 116 l-21 112 -42 -1 c-22 -1 -94 -11 -160 -22z"/>
<path d="M7576 3528 c-3 -7 -9 -34 -14 -60 -11 -56 -26 -48 152 -83 154 -30
163 -30 169 -7 12 41 17 111 9 116 -7 4 -121 22 -270 42 -30 4 -43 1 -46 -8z"/>
<path d="M12220 3507 c-3 -3 -54 -10 -115 -17 -60 -6 -113 -15 -117 -19 -10
-9 10 -223 21 -234 7 -7 159 8 289 29 38 6 39 16 19 154 l-13 85 -40 3 c-22 2
-42 1 -44 -1z"/>
<path d="M8125 3460 c-4 -7 -10 -43 -13 -79 l-4 -66 153 -23 c100 -15 156 -19
163 -12 14 14 28 142 16 154 -5 5 -49 12 -97 16 -48 5 -116 11 -149 15 -45 5
-63 4 -69 -5z"/>
<path d="M11620 3440 c-30 -4 -80 -9 -110 -9 -86 -2 -85 -1 -73 -131 6 -61 13
-114 16 -116 6 -7 304 18 317 26 7 4 6 41 -2 121 l-13 114 -40 1 c-22 1 -65
-2 -95 -6z"/>
<path d="M8676 3412 c-2 -4 -7 -44 -11 -88 l-7 -81 44 -7 c125 -17 270 -28
278 -20 5 5 11 47 12 94 l3 84 -40 7 c-61 10 -274 18 -279 11z"/>
<path d="M11130 3404 c-8 -1 -68 -6 -133 -9 l-119 -7 7 -117 c4 -64 9 -117 10
-119 2 -2 76 0 165 4 l162 7 -7 110 c-4 61 -9 116 -12 124 -5 12 -37 15 -73 7z"/>
<path d="M9226 3368 c-13 -65 -15 -166 -3 -176 6 -6 81 -12 167 -14 l155 -3 3
94 c1 52 -1 97 -5 102 -4 4 -76 10 -160 14 l-152 7 -5 -24z"/>
<path d="M10403 3373 l-73 -4 0 -114 0 -115 165 0 166 0 -3 118 -3 117 -90 1
c-49 0 -123 -1 -162 -3z"/>
<path d="M9777 3363 c-4 -3 -7 -50 -7 -104 0 -79 3 -98 16 -103 9 -3 83 -6
165 -6 l149 0 0 110 0 110 -158 0 c-87 0 -162 -3 -165 -7z"/>
</g>
</svg>
